<?xml version="1.0" encoding="UTF-8"?><svg id="Laag_1" xmlns="http://www.w3.org/2000/svg" viewBox="0 0 124.56 124.56"><defs><style>.cls-1{fill:#fff;}.cls-2{fill:#2581c4;}</style></defs><circle class="cls-2" cx="62.28" cy="62.28" r="62.28"/><path class="cls-1" d="M74.55,96.28h-1.81c-1.4-.79-2.18-2.02-2.42-3.58-.24-1.53-.58-3.08-.57-4.62,.02-2.86,.24-5.73,.44-8.59,.2-3.02,.3-6.03-.64-8.97-1.18-3.68-3.59-5.56-7.15-5.6-3.6-.04-6.1,1.88-7.28,5.62-.88,2.79-.86,5.63-.67,8.51,.23,3.46,.5,6.94,.37,10.4-.09,2.54-.23,5.3-2.94,6.81h-1.81c-1.72-.83-2.77-2.26-3.49-3.96-.39-.92-.77-1.85-1.06-2.81-2.22-7.18-2.94-14.56-2.58-22.03,.21-4.36-.59-8.43-2.36-12.43-1.32-2.96-2.45-6.05-3.31-9.17-2.33-8.46,1.09-15.08,8.88-17.61,1.11,0,2.22,0,3.33,0,2.6,.69,5.17,1.55,7.82,2.02,2.44,.43,5.01,.87,7.42,.53,3.54-.49,6.98-1.67,10.46-2.55,1.21,0,2.42,0,3.63,0,3.08,.88,5.76,2.29,7.28,5.31,1.77,3.53,2.48,7.31,1.55,11.11-.89,3.63-2.26,7.16-3.64,10.64-1.35,3.39-2.36,6.78-2.26,10.5,.1,3.81,.05,7.65-.23,11.45-.38,5.06-1.3,10.05-3.27,14.78-.75,1.8-1.82,3.34-3.65,4.2Z"/></svg>